<svg xmlns="http://www.w3.org/2000/svg" width="24" height="24" fill="none" viewBox="0 0 24 24">
  <path fill="#fff" d="M12 0C5.373 0 0 5.373 0 12c0 5.304 3.438 9.8 8.207 11.388.6.111.793-.261.793-.577 0-.287-.011-1.045-.016-2.052-3.338.724-4.042-1.607-4.042-1.607-.546-1.384-1.333-1.754-1.333-1.754-1.087-.743.083-.728.083-.728 1.204.085 1.838 1.236 1.838 1.236 1.067 1.826 2.8 1.297 3.48.992.108-.774.418-1.297.76-1.597-2.665-.303-5.467-1.333-5.467-5.933 0-1.313.469-2.386 1.236-3.227-.124-.303-.536-1.53.117-3.187 0 0 1.008-.322 3.303 1.227.957-.266 1.986-.398 3.006-.403 1.02.005 2.049.137 3.006.403 2.295-1.549 3.303-1.227 3.303-1.227.653 1.657.241 2.884.118 3.187.77.841 1.236 1.914 1.236 3.227 0 4.61-2.805 5.63-5.475 5.925.43.37.815 1.099.815 2.221 0 1.604-.014 2.91-.014 3.303 0 .319.19.693.798.577C20.563 21.8 24 17.304 24 12c0-6.627-5.373-12-12-12z"/>
</svg>