<svg xmlns="http://www.w3.org/2000/svg" width="24" height="24" fill="none" viewBox="0 0 24 24">
  <path fill="#fff" d="M12 .5C5.373.5.5 5.373.5 12c0 5.273 3.438 9.75 8.205 11.387.6.111.82-.261.82-.577 0-.287-.01-1.243-.015-2.25-3.338.724-4.042-1.61-4.042-1.61-.546-1.384-1.333-1.754-1.333-1.754-1.087-.743.083-.728.083-.728 1.204.085 1.838 1.236 1.838 1.236 1.067 1.83 2.8 1.301 3.48.995.108-.774.418-1.301.76-1.601-2.665-.303-5.467-1.333-5.467-5.933 0-1.313.47-2.386 1.236-3.227-.124-.303-.536-1.53.117-3.187 0 0 1.008-.323 3.301 1.23.957-.266 1.986-.398 3.006-.403 1.02.005 2.049.137 3.006.403 2.293-1.553 3.301-1.23 3.301-1.23.653 1.657.241 2.884.118 3.187.766.841 1.236 1.914 1.236 3.227 0 4.61-2.805 5.63-5.475 5.93.43.37.815 1.1.815 2.22 0 1.604-.014 2.898-.014 3.287 0 .319.218.693.825.577C20.563 21.25 24 16.773 24 12c0-6.627-5.373-11.5-12-11.5z"/>
</svg>